# xmcd CD database file
#
# Track frame offsets:
#	150
#	20235
#	35130
#	54532
#	68875
#	89450
#	106165
#	125717
#	141460
#	158650
#
# Disc length: 2353 seconds
#
# Revision: 3
# Processed by: cddbd v1.5.2PL0 Copyright (c) Steve Scherf et al.
# Submitted via: CDex 1.70beta2
#
DISCID=93092f0a
DTITLE=Anne Murray - As I Am
DYEAR=1988
DGENRE=Country
TTITLE0=Flying On Your Own
TTITLE1=If I Don't Fall Tonight
TTITLE2=You Make Me Curious
TTITLE3=As I Am
TTITLE4=I'm Losing Your Love
TTITLE5=I'll Be Your Eyes
TTITLE6=Slow All Night
TTITLE7=Who But You
TTITLE8=Take It From My Heart
TTITLE9=Slow Passin' Time
EXTD=YEAR: 1988
EXTT0=
EXTT1=
EXTT2=
EXTT3=
EXTT4=
EXTT5=
EXTT6=
EXTT7=
EXTT8=
EXTT9=
PLAYORDER=
